<svg xmlns="http://www.w3.org/2000/svg" viewBox="0 0 507.12354 644.66235"><defs><style>.cls-1{font-size:116.71597px;font-family:BadaBoomBB, BadaBoom BB;}.cls-1,.cls-3{fill:#201e23;}.cls-2{fill:#3a3042;}.cls-4{fill:#eefdff;}.cls-5{opacity:0.63;}.cls-6{fill:#fff;}.cls-7{fill:#43c9d6;}.cls-8{fill:#35aaaf;}.cls-9{fill:#294d66;}</style></defs><g id="Layer_2" data-name="Layer 2"><g id="Layer_1-2" data-name="Layer 1"><text class="cls-1" transform="translate(0.00024 614.31688)">Bookworm</text><path class="cls-2" d="M372.12355,349.68787c-15.837-1.75958-31.96377,3.28045-46.55352,9.68749-14.58962,6.40692-28.22419,14.91179-43.07726,20.68195-17.51456,6.80414-41.22972,7.87623-50.70372-9.12181a29.77448,29.77448,0,0,1-2.66588-20.61407c2.86343-13.69754,11.96612-24.138,20.56278-34.56162,30.66822-37.18553,50.05728-80.29746,44.40259-127.79713l-92.33083,2.93556a93.10562,93.10562,0,0,1-5.23213,44.41385c-10.14874,26.881-34.719,44.83738-53.9839,72.53084-18.09537,26.01172-30.11662,52.07831-24.88075,85.95191,5.23569,33.8736,27.40356,59.21856,62.20179,68.98762,24.13935,6.7769,57.6783,5.65472,81.42813-5.65472,20.33681-9.684,38.27157-21.85714,61.04085-32.35421,22.76957-10.49707,48.21838-12.54335,71.27966-2.70507Z"/><path class="cls-3" d="M202.24527,214.29908c8.77149,2.9191,17.20821,7.46347,23.33774,14.38358a38.99387,38.99387,0,0,1-13.92791,61.7387c13.63776,8.757,21.87388,23.04839,33.34991,34.49334,23.27783-28.61835,42.19886-68.5888,49.28649-104.79125-30.55766-2.934-63.4397-12.31165-92.94549-20.7845C199.19864,204.10278,202.64849,209.08927,202.24527,214.29908Z"/><path d="M212.5246,471.25757a126.34867,126.34867,0,0,1-33.80186-4.41551c-35.90008-10.0782-59.67516-36.46814-65.22984-72.4029-5.80418-37.55206,8.86741-64.97012,25.58713-89.00465,7.55035-10.85391,15.79257-20.11894,23.76288-29.07868,12.22183-13.73979,23.76589-26.71689,29.73732-42.53244a88.7715,88.7715,0,0,0,4.9946-42.39362l-.58481-4.6,100.82982-3.20565.45634,3.83987c5.24661,44.072-10.00566,88.13928-45.33633,130.97913l-1.35336,1.63723c-8.14325,9.84439-15.83521,19.1433-18.33488,31.1041a25.60041,25.60041,0,0,0,2.22042,17.69749c9.01487,16.1704,32.8403,12.161,45.49444,7.24467a252.59353,252.59353,0,0,0,23.9878-11.3416c6.12126-3.16128,12.45006-6.42936,18.9206-9.27074,19.13137-8.40111,34.61411-11.58537,48.715-10.018l2.78039.30874L400.208,429.46709l-8.25126-3.52024c-20.79527-8.87233-44.89808-7.931-67.85946,2.65619-12.00039,5.53237-22.7439,11.5952-33.13323,17.45783-9.38473,5.2959-18.25028,10.29794-27.85872,14.87472C248.84544,467.72484,230.67445,471.25757,212.5246,471.25757ZM206.41421,194.969a97.30007,97.30007,0,0,1-5.94341,41.83246c-6.52236,17.27676-18.57068,30.82059-31.32635,45.16032-7.80539,8.77482-15.87812,17.84881-23.14072,28.28929-15.71924,22.59578-29.52757,48.27843-24.17561,82.90011,5.02767,32.52532,26.59519,56.425,59.17431,65.5714,24.8655,6.98122,57.13747,4.75972,78.47556-5.40218,9.34647-4.45018,18.087-9.38286,27.34128-14.6049,10.536-5.94659,21.43281-12.095,33.7462-17.77229,22.25967-10.2602,45.59156-12.208,66.61586-5.717L368.8997,353.64452c-11.8718-.709-25.19975,2.37534-41.63475,9.5921-6.22664,2.73444-12.437,5.941-18.44122,9.04264a258.81824,258.81824,0,0,1-24.80306,11.70879c-20.367,7.91276-45.557,7.5817-55.91526-10.9995a34.00849,34.00849,0,0,1-3.11-23.52984c2.9272-14.00336,11.65366-24.55251,20.09184-34.75426l1.34589-1.62806c32.76909-39.73411,47.51561-80.34622,43.87023-120.7742Z"/><path class="cls-2" d="M297.5838,8.85417c-77.22947-24.316-151.01161,52.43621-151.8722,106.037-1.04526,65.1035,64.41481,87.48233,87.99393,94.90647,21.47134,6.76016,90.05244,26.58484,126.49441-27.37369C390.20325,137.99892,374.81308,33.17021,297.5838,8.85417Z"/><path class="cls-3" d="M372.41674,102.8699c1.37167,24.39561-3.5573,47.44666-14.09329,63.04726-36.44211,53.9584-105.0232,34.13386-126.49465,27.37343-21.00918-6.61482-75.22863-25.13173-86.06619-75.13667,1.17093,62.56888,72.36729,90.00953,95.54428,97.30693,21.47148,6.76043,82.45108,20.92161,118.89305-33.03692C373.09334,163.333,377.5944,133.08749,372.41674,102.8699Z"/><path class="cls-4" d="M251.79825,160.69075a20.93876,20.93876,0,0,1-6.88224-1.139,19.52423,19.52423,0,0,1-13.1709-16.84328,4.217,4.217,0,0,1,8.41769-.52409,11.14561,11.14561,0,0,0,7.528,9.40293,13.63823,13.63823,0,0,0,13.5728-3.12076,4.21641,4.21641,0,1,1,6.09169,5.83128A21.7354,21.7354,0,0,1,251.79825,160.69075Z"/><path class="cls-4" d="M251.47038,37.75138a4.19835,4.19835,0,0,1-2.22044-.635,31.18838,31.18838,0,0,0-22.00353-4.10012,4.21659,4.21659,0,1,1-1.56975-8.2858,39.69,39.69,0,0,1,28.02266,5.22031,4.21769,4.21769,0,0,1-2.22894,7.80063Z"/><path class="cls-4" d="M339.04638,68.5381a4.20852,4.20852,0,0,1-3.01794-1.27084A31.174,31.174,0,0,0,315.645,58.02017a4.21668,4.21668,0,0,1,.45807-8.42091,39.70713,39.70713,0,0,1,25.961,11.77561,4.21777,4.21777,0,0,1-3.01766,7.16323Z"/><path class="cls-4" d="M344.92774,118.47462a33.37928,33.37928,0,1,1-21.81409-41.86315A33.37945,33.37945,0,0,1,344.92774,118.47462Z"/><path d="M336.06976,114.85249a24.63717,24.63717,0,1,1-16.10065-30.89911A24.63721,24.63721,0,0,1,336.06976,114.85249Z"/><path d="M286.4635,223.17872A146.82649,146.82649,0,0,1,266.235,221.7199a4.21693,4.21693,0,1,1,1.16309-8.35328c40.52629,5.64117,70.57264-5.56293,89.30861-33.30289,15.65561-23.1823,18.01793-63.92593,5.74413-99.08126-11.95934-34.25673-35.44613-58.44457-66.13322-68.10589-31.00831-9.76335-64.5462-3.25826-94.44575,18.30541-30.1412,21.74009-51.50135,56.19026-51.94427,83.77625-.62532,38.98616,23.26414,67.92136,71.004,86.00279a4.21671,4.21671,0,1,1-2.98632,7.887c-50.69336-19.19882-77.129-51.71285-76.45027-94.02476.49021-30.55436,22.77113-66.9165,55.44324-90.48154,32.113-23.16078,68.302-30.09231,101.913-19.51035,33.288,10.48166,58.70373,36.53829,71.5626,73.37137,13.30165,38.10232,10.60175,80.9338-6.71762,106.58112C346.59074,210.10916,320.13065,223.17872,286.4635,223.17872Z"/><g class="cls-5"><path class="cls-6" d="M245.99052,66.00042a7.59067,7.59067,0,1,1-4.96059-9.52A7.59071,7.59071,0,0,1,245.99052,66.00042Z"/></g><path class="cls-4" d="M253.218,89.59933a33.37934,33.37934,0,1,1-21.81409-41.86314A33.37966,33.37966,0,0,1,253.218,89.59933Z"/><path d="M244.3599,85.97707A24.63721,24.63721,0,1,1,228.259,55.078,24.63715,24.63715,0,0,1,244.3599,85.97707Z"/><path class="cls-4" d="M426.24362,263.02588s-79.54607-3.82087-125.27246,17.22243c-45.72627,21.043-56.41119,39.939-57.8182,55.57105-1.40687,15.63195,70.34826-1.20255,70.34826-1.20255Z"/><path class="cls-7" d="M430.97278,259.06844l-29.48267,179.1833s-73.70721,34.99684-150.68995,39.19633L269.33181,319.3733Z"/><path class="cls-8" d="M314.3306,408.58082c36.64244,12.32122,86.55916-41.44295,101.431-57.06507l-14.27145,86.736s-59.17631,31.04165-129.52456,40.06012c-.13936-.105-20.98618-1.10425-21.12594-1.2096L269.14808,319.557S271.41861,394.151,314.3306,408.58082Z"/><path class="cls-4" d="M60.06391,261.797s66.22594.80891,114.11778,16.30377c53.71478,17.37879,65.42367,42.08647,66.83068,57.71856,1.407,15.63195-70.34812-1.20255-70.34812-1.20255Z"/><path class="cls-7" d="M53.19269,259.06844l29.4828,179.1833s73.707,34.99684,150.68968,39.19633l-18.01726-158.1853Z"/><path class="cls-8" d="M215.34791,319.26277a37.02647,37.02647,0,0,0,27.8448,12.59888c18.0175,0,26.1391-12.48835,26.1391-12.48835l3.34368,159.4746s-19.655,19.59817-39.31032-1.39983Z"/><path class="cls-8" d="M173.47812,407.36618C136.83555,419.68753,83.276,367.13787,68.404,351.51575l14.27145,86.736s73.41348,34.85482,150.22939,39.16843c.13933-.10508.281-.21256.42084-.31791L215.34791,319.26277S216.39051,392.93664,173.47812,407.36618Z"/><path class="cls-7" d="M227.38765,330.06765s21.9149,8.52985,39.89629-4.54755l3.59038,153.48815s-19.74709,13.46359-35.006.8974Z"/><path class="cls-9" d="M254.21318,492.72638c-13.83132,0-20.67092-7.45283-23.35367-11.47311-70.681-2.308-146.73836-37.66339-149.976-39.18372a4.218,4.218,0,0,1-2.36883-3.13324L49.03172,259.75314a4.21682,4.21682,0,0,1,5.22588-4.76476l21.7854,5.68395c4.28877.16964,37.00275,1.62328,86.5496,8.00163,53.338,6.86657,73.41229,33.914,80.74688,50.133,7.45071-15.41834,27.15051-40.8078,77.69388-50.09834a556.83065,556.83065,0,0,1,96.50877-9.29239l12.00372-4.31587a4.21664,4.21664,0,0,1,5.58763,4.65277L405.65054,438.93631a4.21644,4.21644,0,0,1-1.9668,2.91723c-39.46711,24.03706-114.02455,38.23916-128.09567,40.76435C273.46661,486.38948,267.86582,492.72638,254.21318,492.72638ZM86.471,435.34433c12.726,5.69392,83.61828,36.14054,146.94772,37.54157a4.217,4.217,0,0,1,3.77985,2.54844c.148.3219,4.19708,8.85812,17.01462,8.85812,12.35965,0,14.36272-6.4311,14.37906-6.49619a4.218,4.218,0,0,1,3.37692-3.10495c.8433-.14414,83.72613-14.454,125.67736-39.05538l28.00034-170.17082-5.9632,2.14379a4.32407,4.32407,0,0,1-1.50226.248c-.42339-.00917-42.42722-.63117-95.6228,9.14732-66.90573,12.29758-74.901,53.805-75.2088,55.56587a4.21856,4.21856,0,0,1-8.326-.07492c-.3-1.88115-8.19785-46.5332-77.50856-55.45654-52.572-6.76773-85.90209-7.94371-86.23328-7.9554a4.20785,4.20785,0,0,1-.92331-.13431l-15.95132-4.1619Z"/><path class="cls-9" d="M243.19282,336.07881c-19.62314,0-26.75169-9.46776-28.99458-13.83052l-140.276-53.43856a4.21734,4.21734,0,1,1,3.00279-7.88207l141.92523,54.06693a4.2209,4.2209,0,0,1,2.54752,2.76154c.11305.33518,3.49635,9.88862,21.79509,9.88862,18.37888,0,22.00924-9.25692,22.15445-9.65056a4.39515,4.39515,0,0,1,2.507-2.57049l148.92532-55.73247a4.21684,4.21684,0,1,1,2.95523,7.89895L272.40249,322.72681C270.06992,326.93228,262.751,336.07881,243.19282,336.07881Z"/><path class="cls-9" d="M232.95507,480.40476a4.21674,4.21674,0,0,1-4.20228-3.91878L218.19792,327.6134a4.21689,4.21689,0,1,1,8.41267-.59623l10.55487,148.87258a4.21619,4.21619,0,0,1-3.90816,4.50438C233.15607,480.40157,233.05471,480.40476,232.95507,480.40476Z"/><path class="cls-9" d="M272.6743,483.0652a4.21674,4.21674,0,0,1-4.21531-4.15034l-2.47272-156.49692a4.21775,4.21775,0,0,1,4.15114-4.28293c.02139-.00079.0445-.00079.06762-.00079a4.21715,4.21715,0,0,1,4.21543,4.15034l2.47246,156.49692a4.21785,4.21785,0,0,1-4.15127,4.28292C272.72026,483.0652,272.69728,483.0652,272.6743,483.0652Z"/><path class="cls-2" d="M421.61276,351.814c15.80772,14.75223,28.13306,33.986,31.48155,55.34747,3.34843,21.36134-3.29668,44.80057-19.68043,58.91021-8.96731,7.72239-20.33388,12.36-32.00122,14.3396-37.58435,6.37583-79.30335-19.42533-85.79821-56.98921-2.04614-11.83221-.64379-24.58852,5.77282-34.73806s22.07066-22.84659,27.2904-17.69776c4.3896,4.33-5.59029,16.77074-5.35289,27.09418.36866,16.0317,13.12137,32.30107,28.832,35.51681,15.71033,3.21562,35.17871-3.79363,40.24986-19.00712C415.76076,404.52772,420.23276,365.396,421.61276,351.814Z"/><path class="cls-2" d="M455.063,425.875c2.23891-4.41218-.16553-9.84731-3.54454-13.46133-5.01825-5.36737-12.4396-8.60517-19.75626-7.9299-7.31707.67554-14.26345,5.53184-16.79758,12.42883,4.21663-19.72729,2.58937-39.53031,6.80613-59.25748.50084-2.34306,2.11509-4.83823,4.40846-4.144,2.29338.6944,3.92825,2.67558,5.35954,4.59738C446.913,378.75234,455.32708,400.1364,455.063,425.875Z"/><path d="M389.78557,485.59863c-36.77038.00345-72.33182-26.78544-78.32784-61.458-2.41984-13.99712-.15981-27.38937,6.36494-37.71042,5.721-9.05008,17.94207-19.80435,26.33016-20.76711a8.78817,8.78817,0,0,1,7.48684,2.32114c4.36689,4.30657,1.807,10.83876-.66889,17.15614-1.65039,4.20972-3.5201,8.98113-3.43123,12.843.32947,14.30745,11.99056,28.72424,25.462,31.48285,13.562,2.77562,31.02651-3.07492,35.40309-16.20932,3.14972-9.45048,9.35845-50.11746,11.48494-64.98992a4.217,4.217,0,0,1,7.05216-2.48574c15.48423,14.45146,26.53581,36.58585,30.318,60.72679,3.74262,23.86648-4.53826,48.50162-21.09352,62.75965-9.012,7.75932-20.78514,13.0503-34.049,15.30143A73.71985,73.71985,0,0,1,389.78557,485.59863ZM345.25481,373.91995c-3.26317,0-14.35421,7.60721-20.30266,17.01718-5.4063,8.55109-7.24639,19.83238-5.18231,31.76688,5.91377,34.209,44.49781,59.73268,80.93712,53.54975,11.74865-1.99394,22.10822-6.61948,29.95578-13.37764,14.39563-12.39748,21.56457-34.01057,18.26513-55.06184-2.99811-19.13293-10.86042-36.83136-21.95-49.80354-2.36883,15.79642-7.52311,48.76838-10.57053,57.91318-5.983,17.94712-28.07952,25.2873-45.09577,21.80492-17.3376-3.54906-31.78269-21.29186-32.20262-39.55091-.1286-5.55654,2.07045-11.16543,4.00925-16.11473,1.0511-2.68076,2.60942-6.65972,2.47113-8.11017A1.52818,1.52818,0,0,0,345.25481,373.91995Z"/><path d="M277.789,275.389a4.21672,4.21672,0,0,1-3.675-2.14378c-3.54654-6.27872-9.97258-10.69834-15.17562-13.84713a120.81457,120.81457,0,0,0-62.30995-17.44947,4.217,4.217,0,0,1,.00837-8.43406h.00826a129.23422,129.23422,0,0,1,66.65954,18.66862c6.08343,3.68072,13.6444,8.93065,18.1529,16.91422a4.21817,4.21817,0,0,1-3.66849,6.2916Z"/><path d="M317.82612,435.17721a4.22081,4.22081,0,0,1-4.10344-5.20782c3.036-12.56872,18.41328-23.29655,31.02638-21.66317a4.21686,4.21686,0,1,1-1.08389,8.36378c-8.50476-1.08458-19.685,6.75073-21.74238,15.27937A4.22166,4.22166,0,0,1,317.82612,435.17721Z"/><path d="M356.54845,476.93966a4.2194,4.2194,0,0,1-4.08006-3.1642,42.76308,42.76308,0,0,1,12.24071-41.21578,4.21731,4.21731,0,0,1,5.69312,6.22345,34.11583,34.11583,0,0,0-9.7668,32.88534,4.21751,4.21751,0,0,1-3.02923,5.137A4.2615,4.2615,0,0,1,356.54845,476.93966Z"/><path d="M423.43784,474.65a4.22308,4.22308,0,0,1-4.1692-4.88579A40.32157,40.32157,0,0,0,402.94573,430.625a4.21682,4.21682,0,0,1,4.86268-6.89062,48.8149,48.8149,0,0,1,19.78894,47.36576A4.21981,4.21981,0,0,1,423.43784,474.65Z"/><path d="M452.59782,414.396a4.20185,4.20185,0,0,1-2.68342-.96528A25.96831,25.96831,0,0,0,421.743,410.6336l-.2916.15743c-2.00974,1.08391-5.044,2.723-8.51815,1.6011a4.21729,4.21729,0,0,1,2.44791-8.07006,10.88209,10.88209,0,0,0,2.06391-.95279l.31143-.16819a34.59575,34.59575,0,0,1,37.52811,3.72629,4.217,4.217,0,0,1-2.68674,7.46864Z"/></g></g></svg>