<svg xmlns="http://www.w3.org/2000/svg" xmlns:xlink="http://www.w3.org/1999/xlink" viewBox="0 0 670 670"><defs><style>.cls-1{fill:#ff2e63;}.cls-2{fill:none;stroke:#fff;stroke-linecap:round;stroke-linejoin:round;stroke-width:5px;}.cls-3{font-size:19.2961px;font-family:Montserrat-Medium, Montserrat;font-weight:500;}.cls-10,.cls-3{fill:#fff;}.cls-4{fill:#232830;}.cls-14,.cls-5{fill:#252a34;}.cls-6{fill:#444951;}.cls-7{fill:#56585b;}.cls-8{opacity:0.15;}.cls-9{fill:url(#linear-gradient);}.cls-10{font-size:49.51496px;font-family:Montserrat-Bold, Montserrat;font-weight:700;}.cls-11{font-family:LoRes9OT-NarrowBold, "LoRes 9 OT";}.cls-12{font-size:13.17692px;fill:#eaeaea;stroke:#eaeaea;stroke-miterlimit:10;stroke-width:0.67149px;font-family:MontserratLightAlt1Light, Montserrat Light Alt1;}.cls-13{opacity:0.5;}.cls-14{font-size:15.36158px;font-family:Montserrat-SemiBoldItalic, Montserrat;font-weight:600;font-style:italic;}</style><linearGradient id="linear-gradient" x1="329.28165" y1="367.13021" x2="329.28165" y2="222.06904" gradientUnits="userSpaceOnUse"><stop offset="0" stop-color="#ff2e63"/><stop offset="0.08043" stop-color="#ff2e63" stop-opacity="0.85793"/><stop offset="0.22103" stop-color="#ff2e63" stop-opacity="0.6335"/><stop offset="0.36202" stop-color="#ff2e63" stop-opacity="0.43982"/><stop offset="0.50013" stop-color="#ff2e63" stop-opacity="0.2816"/><stop offset="0.63486" stop-color="#ff2e63" stop-opacity="0.15862"/><stop offset="0.76515" stop-color="#ff2e63" stop-opacity="0.07081"/><stop offset="0.88909" stop-color="#ff2e63" stop-opacity="0.01797"/><stop offset="1" stop-color="#ff2e63" stop-opacity="0"/></linearGradient></defs><g id="Layer_2" data-name="Layer 2"><g id="Layer_2-2" data-name="Layer 2"><rect class="cls-1" width="670" height="670"/><path class="cls-2" d="M588.477,598.97549q8.66661,5.81089,17.33317,11.62186L588.477,622.56616"/><text class="cls-3" transform="translate(518.42385 57.66038)">Codyle.com</text><polygon class="cls-4" points="78.95 53.591 78.95 55.754 76.798 55.754 76.787 55.754 76.787 53.591 78.95 53.591"/><rect class="cls-4" x="76.78749" y="51.42706" width="2.16239" height="2.16429"/><rect class="cls-4" x="76.78749" y="49.26447" width="2.16239" height="2.16258"/><rect class="cls-4" x="76.78749" y="47.09964" width="2.16239" height="2.16483"/><polygon class="cls-4" points="76.798 55.754 76.798 57.918 74.636 57.918 74.636 55.754 76.787 55.754 76.798 55.754"/><polygon class="cls-5" points="76.787 53.591 76.787 55.754 74.636 55.754 74.623 55.754 74.623 53.591 76.787 53.591"/><rect class="cls-5" x="74.6232" y="51.42706" width="2.16429" height="2.16429"/><rect class="cls-5" x="74.6232" y="49.26447" width="2.16429" height="2.16258"/><rect class="cls-5" x="74.6232" y="47.09964" width="2.16429" height="2.16483"/><rect class="cls-4" x="74.6232" y="44.93745" width="2.16429" height="2.16219"/><rect class="cls-4" x="72.47144" y="57.91798" width="2.16425" height="2.16258"/><polygon class="cls-5" points="74.636 55.754 74.636 57.918 72.471 57.918 72.471 55.754 74.623 55.754 74.636 55.754"/><polygon class="cls-5" points="74.623 53.591 74.623 55.754 72.471 55.754 72.461 55.754 72.461 53.591 74.623 53.591"/><rect class="cls-5" x="72.46081" y="51.42706" width="2.16239" height="2.16429"/><rect class="cls-5" x="72.46081" y="49.26447" width="2.16239" height="2.16258"/><rect class="cls-5" x="72.46081" y="47.09964" width="2.16239" height="2.16483"/><rect class="cls-5" x="72.46081" y="44.93745" width="2.16239" height="2.16219"/><rect class="cls-4" x="72.46081" y="42.77525" width="2.16239" height="2.16219"/><rect class="cls-4" x="70.30906" y="60.08056" width="2.16239" height="2.16219"/><rect class="cls-5" x="70.30906" y="57.91798" width="2.16239" height="2.16258"/><polygon class="cls-5" points="72.471 55.754 72.471 57.918 70.309 57.918 70.309 55.754 72.461 55.754 72.471 55.754"/><polygon class="cls-6" points="72.461 53.591 72.461 55.754 70.309 55.754 70.298 55.754 70.298 53.591 72.461 53.591"/><rect class="cls-6" x="70.29842" y="51.42706" width="2.16239" height="2.16429"/><rect class="cls-6" x="70.29842" y="49.26447" width="2.16239" height="2.16258"/><rect class="cls-6" x="70.29842" y="47.09964" width="2.16239" height="2.16483"/><rect class="cls-5" x="70.29842" y="44.93745" width="2.16239" height="2.16219"/><rect class="cls-4" x="70.29842" y="42.77525" width="2.16239" height="2.16219"/><rect class="cls-4" x="68.14477" y="62.24276" width="2.16429" height="2.16483"/><rect class="cls-5" x="68.14477" y="60.08056" width="2.16429" height="2.16219"/><rect class="cls-5" x="68.14477" y="57.91798" width="2.16429" height="2.16258"/><polygon class="cls-6" points="70.309 55.754 70.309 57.918 68.145 57.918 68.145 55.754 70.298 55.754 70.309 55.754"/><polygon class="cls-6" points="70.298 53.591 70.298 55.754 68.145 55.754 68.134 55.754 68.134 53.591 70.298 53.591"/><rect class="cls-6" x="68.13378" y="51.42706" width="2.16464" height="2.16429"/><rect class="cls-6" x="68.13378" y="49.26447" width="2.16464" height="2.16258"/><rect class="cls-6" x="68.13378" y="47.09964" width="2.16464" height="2.16483"/><rect class="cls-4" x="68.13378" y="44.93745" width="2.16464" height="2.16219"/><rect class="cls-4" x="65.98199" y="64.40759" width="2.16278" height="2.16258"/><rect class="cls-5" x="65.98199" y="62.24276" width="2.16278" height="2.16483"/><rect class="cls-5" x="65.98199" y="60.08056" width="2.16278" height="2.16219"/><rect class="cls-6" x="65.98199" y="57.91798" width="2.16278" height="2.16258"/><polygon class="cls-6" points="68.145 55.754 68.145 57.918 65.982 57.918 65.982 55.754 68.134 55.754 68.145 55.754"/><polygon class="cls-6" points="68.134 53.591 68.134 55.754 65.982 55.754 65.976 55.754 65.971 55.754 65.971 53.591 68.134 53.591"/><rect class="cls-6" x="65.9714" y="51.42706" width="2.16239" height="2.16429"/><rect class="cls-6" x="65.9714" y="49.26447" width="2.16239" height="2.16258"/><rect class="cls-4" x="65.9714" y="47.09964" width="2.16239" height="2.16483"/><rect class="cls-4" x="63.81355" y="66.57017" width="2.162" height="2.16429"/><rect class="cls-5" x="63.81355" y="64.40759" width="2.162" height="2.16258"/><rect class="cls-5" x="63.81355" y="62.24276" width="2.162" height="2.16483"/><rect class="cls-6" x="63.81355" y="60.08056" width="2.162" height="2.16219"/><rect class="cls-6" x="63.81355" y="57.91798" width="2.162" height="2.16258"/><polygon class="cls-6" points="65.976 55.754 65.976 57.918 63.814 57.918 63.814 55.754 65.965 55.754 65.971 55.754 65.976 55.754"/><polygon class="cls-6" points="65.965 53.591 65.965 55.754 63.814 55.754 63.803 55.754 63.803 53.591 65.965 53.591"/><rect class="cls-6" x="63.80256" y="51.42706" width="2.16278" height="2.16429"/><rect class="cls-4" x="63.80256" y="49.26447" width="2.16278" height="2.16258"/><rect class="cls-4" x="61.65116" y="64.40759" width="2.16239" height="2.16258"/><rect class="cls-5" x="61.65116" y="62.24276" width="2.16239" height="2.16483"/><rect class="cls-6" x="61.65116" y="60.08056" width="2.16239" height="2.16219"/><rect class="cls-6" x="61.65116" y="57.91798" width="2.16239" height="2.16258"/><polygon class="cls-6" points="63.814 55.754 63.814 57.918 61.651 57.918 61.651 55.754 63.803 55.754 63.814 55.754"/><polygon class="cls-6" points="63.803 53.591 63.803 55.754 61.651 55.754 61.638 55.754 61.638 53.591 63.803 53.591"/><rect class="cls-6" x="61.63828" y="51.42706" width="2.16429" height="2.16429"/><rect class="cls-5" x="61.63828" y="49.26447" width="2.16429" height="2.16258"/><rect class="cls-4" x="61.63828" y="47.09964" width="2.16429" height="2.16483"/><rect class="cls-4" x="59.48652" y="62.24276" width="2.16464" height="2.16483"/><rect class="cls-5" x="59.48652" y="60.08056" width="2.16464" height="2.16219"/><rect class="cls-6" x="59.48652" y="57.91798" width="2.16464" height="2.16258"/><polygon class="cls-6" points="61.651 55.754 61.651 57.918 59.487 57.918 59.487 55.754 61.638 55.754 61.651 55.754"/><polygon class="cls-6" points="61.638 53.591 61.638 55.754 59.487 55.754 59.476 55.754 59.476 53.591 61.638 53.591"/><rect class="cls-6" x="59.47589" y="51.42706" width="2.16238" height="2.16429"/><rect class="cls-6" x="59.47589" y="49.26447" width="2.16238" height="2.16258"/><rect class="cls-5" x="59.47589" y="47.09964" width="2.16238" height="2.16483"/><rect class="cls-4" x="59.47589" y="44.93745" width="2.16238" height="2.16219"/><rect class="cls-4" x="57.32414" y="60.08056" width="2.16239" height="2.16219"/><rect class="cls-5" x="57.32414" y="57.91798" width="2.16239" height="2.16258"/><polygon class="cls-6" points="59.487 55.754 59.487 57.918 57.324 57.918 57.324 55.754 59.476 55.754 59.487 55.754"/><polygon class="cls-6" points="59.476 53.591 59.476 55.754 57.324 55.754 57.312 55.754 57.312 53.591 59.476 53.591"/><rect class="cls-7" x="57.31164" y="51.42706" width="2.16425" height="2.16429"/><rect class="cls-7" x="57.31164" y="49.26447" width="2.16425" height="2.16258"/><rect class="cls-6" x="57.31164" y="47.09964" width="2.16425" height="2.16483"/><rect class="cls-6" x="57.31164" y="44.93745" width="2.16425" height="2.16219"/><rect class="cls-4" x="57.31164" y="42.77525" width="2.16425" height="2.16219"/><rect class="cls-4" x="55.15946" y="57.91798" width="2.16468" height="2.16258"/><polygon class="cls-6" points="57.324 55.754 57.324 57.918 55.159 57.918 55.159 55.754 57.312 55.754 57.324 55.754"/><polygon class="cls-6" points="57.312 53.591 57.312 55.754 55.159 55.754 55.149 55.754 55.149 53.591 57.312 53.591"/><rect class="cls-7" x="55.14925" y="51.42706" width="2.16239" height="2.16429"/><rect class="cls-7" x="55.14925" y="49.26447" width="2.16239" height="2.16258"/><rect class="cls-6" x="55.14925" y="47.09964" width="2.16239" height="2.16483"/><rect class="cls-6" x="55.14925" y="44.93745" width="2.16239" height="2.16219"/><rect class="cls-4" x="55.14925" y="42.77525" width="2.16239" height="2.16219"/><polygon class="cls-4" points="55.159 55.754 55.159 57.918 52.997 57.918 52.997 55.754 55.149 55.754 55.159 55.754"/><polygon class="cls-6" points="55.149 53.591 55.149 55.754 52.997 55.754 52.987 55.754 52.987 53.591 55.149 53.591"/><rect class="cls-6" x="52.98686" y="51.42706" width="2.16239" height="2.16429"/><rect class="cls-6" x="52.98686" y="49.26447" width="2.16239" height="2.16258"/><rect class="cls-6" x="52.98686" y="47.09964" width="2.16239" height="2.16483"/><rect class="cls-4" x="52.98686" y="44.93745" width="2.16239" height="2.16219"/><polygon class="cls-4" points="52.987 53.591 52.987 55.754 50.835 55.754 50.823 55.754 50.823 53.591 52.987 53.591"/><rect class="cls-4" x="50.82257" y="51.42706" width="2.16429" height="2.16429"/><rect class="cls-4" x="50.82257" y="49.26447" width="2.16429" height="2.16258"/><rect class="cls-4" x="50.82257" y="47.09964" width="2.16429" height="2.16483"/><polygon class="cls-4" points="78.95 91.417 78.95 93.579 76.798 93.579 76.787 93.579 76.787 91.417 78.95 91.417"/><rect class="cls-4" x="76.78749" y="89.25238" width="2.16239" height="2.16429"/><rect class="cls-4" x="76.78749" y="87.08979" width="2.16239" height="2.16258"/><rect class="cls-4" x="76.78749" y="84.92496" width="2.16239" height="2.16483"/><polygon class="cls-4" points="76.798 93.579 76.798 95.743 74.636 95.743 74.636 93.579 76.787 93.579 76.798 93.579"/><polygon class="cls-5" points="76.787 91.417 76.787 93.579 74.636 93.579 74.623 93.579 74.623 91.417 76.787 91.417"/><rect class="cls-5" x="74.6232" y="89.25238" width="2.16429" height="2.16429"/><rect class="cls-5" x="74.6232" y="87.08979" width="2.16429" height="2.16258"/><rect class="cls-5" x="74.6232" y="84.92496" width="2.16429" height="2.16483"/><rect class="cls-4" x="74.6232" y="82.76277" width="2.16429" height="2.16219"/><rect class="cls-4" x="72.47144" y="95.7433" width="2.16425" height="2.16258"/><polygon class="cls-5" points="74.636 93.579 74.636 95.743 72.471 95.743 72.471 93.579 74.623 93.579 74.636 93.579"/><polygon class="cls-5" points="74.623 91.417 74.623 93.579 72.471 93.579 72.461 93.579 72.461 91.417 74.623 91.417"/><rect class="cls-5" x="72.46081" y="89.25238" width="2.16239" height="2.16429"/><rect class="cls-5" x="72.46081" y="87.08979" width="2.16239" height="2.16258"/><rect class="cls-5" x="72.46081" y="84.92496" width="2.16239" height="2.16483"/><rect class="cls-5" x="72.46081" y="82.76277" width="2.16239" height="2.16219"/><rect class="cls-4" x="72.46081" y="80.60058" width="2.16239" height="2.16219"/><rect class="cls-4" x="70.30906" y="97.90589" width="2.16239" height="2.16219"/><rect class="cls-5" x="70.30906" y="95.7433" width="2.16239" height="2.16258"/><polygon class="cls-5" points="72.471 93.579 72.471 95.743 70.309 95.743 70.309 93.579 72.461 93.579 72.471 93.579"/><polygon class="cls-6" points="72.461 91.417 72.461 93.579 70.309 93.579 70.298 93.579 70.298 91.417 72.461 91.417"/><rect class="cls-6" x="70.29842" y="89.25238" width="2.16239" height="2.16429"/><rect class="cls-6" x="70.29842" y="87.08979" width="2.16239" height="2.16258"/><rect class="cls-6" x="70.29842" y="84.92496" width="2.16239" height="2.16483"/><rect class="cls-5" x="70.29842" y="82.76277" width="2.16239" height="2.16219"/><rect class="cls-4" x="70.29842" y="80.60058" width="2.16239" height="2.16219"/><rect class="cls-4" x="68.14477" y="100.06808" width="2.16429" height="2.16483"/><rect class="cls-5" x="68.14477" y="97.90589" width="2.16429" height="2.16219"/><rect class="cls-5" x="68.14477" y="95.7433" width="2.16429" height="2.16258"/><polygon class="cls-6" points="70.309 93.579 70.309 95.743 68.145 95.743 68.145 93.579 70.298 93.579 70.309 93.579"/><polygon class="cls-6" points="70.298 91.417 70.298 93.579 68.145 93.579 68.134 93.579 68.134 91.417 70.298 91.417"/><rect class="cls-6" x="68.13378" y="89.25238" width="2.16464" height="2.16429"/><rect class="cls-6" x="68.13378" y="87.08979" width="2.16464" height="2.16258"/><rect class="cls-6" x="68.13378" y="84.92496" width="2.16464" height="2.16483"/><rect class="cls-4" x="68.13378" y="82.76277" width="2.16464" height="2.16219"/><rect class="cls-4" x="65.98199" y="102.23291" width="2.16278" height="2.16258"/><rect class="cls-5" x="65.98199" y="100.06808" width="2.16278" height="2.16483"/><rect class="cls-5" x="65.98199" y="97.90589" width="2.16278" height="2.16219"/><rect class="cls-6" x="65.98199" y="95.7433" width="2.16278" height="2.16258"/><polygon class="cls-6" points="68.145 93.579 68.145 95.743 65.982 95.743 65.982 93.579 68.134 93.579 68.145 93.579"/><polygon class="cls-6" points="68.134 91.417 68.134 93.579 65.982 93.579 65.976 93.579 65.971 93.579 65.971 91.417 68.134 91.417"/><rect class="cls-6" x="65.9714" y="89.25238" width="2.16239" height="2.16429"/><rect class="cls-6" x="65.9714" y="87.08979" width="2.16239" height="2.16258"/><rect class="cls-4" x="65.9714" y="84.92496" width="2.16239" height="2.16483"/><rect class="cls-4" x="63.81355" y="104.39549" width="2.162" height="2.16429"/><rect class="cls-5" x="63.81355" y="102.23291" width="2.162" height="2.16258"/><rect class="cls-5" x="63.81355" y="100.06808" width="2.162" height="2.16483"/><rect class="cls-6" x="63.81355" y="97.90589" width="2.162" height="2.16219"/><rect class="cls-6" x="63.81355" y="95.7433" width="2.162" height="2.16258"/><polygon class="cls-6" points="65.976 93.579 65.976 95.743 63.814 95.743 63.814 93.579 65.965 93.579 65.971 93.579 65.976 93.579"/><polygon class="cls-6" points="65.965 91.417 65.965 93.579 63.814 93.579 63.803 93.579 63.803 91.417 65.965 91.417"/><rect class="cls-6" x="63.80256" y="89.25238" width="2.16278" height="2.16429"/><rect class="cls-4" x="63.80256" y="87.08979" width="2.16278" height="2.16258"/><rect class="cls-4" x="61.65116" y="102.23291" width="2.16239" height="2.16258"/><rect class="cls-5" x="61.65116" y="100.06808" width="2.16239" height="2.16483"/><rect class="cls-6" x="61.65116" y="97.90589" width="2.16239" height="2.16219"/><rect class="cls-6" x="61.65116" y="95.7433" width="2.16239" height="2.16258"/><polygon class="cls-6" points="63.814 93.579 63.814 95.743 61.651 95.743 61.651 93.579 63.803 93.579 63.814 93.579"/><polygon class="cls-6" points="63.803 91.417 63.803 93.579 61.651 93.579 61.638 93.579 61.638 91.417 63.803 91.417"/><rect class="cls-6" x="61.63828" y="89.25238" width="2.16429" height="2.16429"/><rect class="cls-5" x="61.63828" y="87.08979" width="2.16429" height="2.16258"/><rect class="cls-4" x="61.63828" y="84.92496" width="2.16429" height="2.16483"/><rect class="cls-4" x="59.48652" y="100.06808" width="2.16464" height="2.16483"/><rect class="cls-5" x="59.48652" y="97.90589" width="2.16464" height="2.16219"/><rect class="cls-6" x="59.48652" y="95.7433" width="2.16464" height="2.16258"/><polygon class="cls-6" points="61.651 93.579 61.651 95.743 59.487 95.743 59.487 93.579 61.638 93.579 61.651 93.579"/><polygon class="cls-6" points="61.638 91.417 61.638 93.579 59.487 93.579 59.476 93.579 59.476 91.417 61.638 91.417"/><rect class="cls-6" x="59.47589" y="89.25238" width="2.16238" height="2.16429"/><rect class="cls-6" x="59.47589" y="87.08979" width="2.16238" height="2.16258"/><rect class="cls-5" x="59.47589" y="84.92496" width="2.16238" height="2.16483"/><rect class="cls-4" x="59.47589" y="82.76277" width="2.16238" height="2.16219"/><rect class="cls-4" x="57.32414" y="97.90589" width="2.16239" height="2.16219"/><rect class="cls-5" x="57.32414" y="95.7433" width="2.16239" height="2.16258"/><polygon class="cls-6" points="59.487 93.579 59.487 95.743 57.324 95.743 57.324 93.579 59.476 93.579 59.487 93.579"/><polygon class="cls-6" points="59.476 91.417 59.476 93.579 57.324 93.579 57.312 93.579 57.312 91.417 59.476 91.417"/><rect class="cls-7" x="57.31164" y="89.25238" width="2.16425" height="2.16429"/><rect class="cls-7" x="57.31164" y="87.08979" width="2.16425" height="2.16258"/><rect class="cls-6" x="57.31164" y="84.92496" width="2.16425" height="2.16483"/><rect class="cls-6" x="57.31164" y="82.76277" width="2.16425" height="2.16219"/><rect class="cls-4" x="57.31164" y="80.60058" width="2.16425" height="2.16219"/><rect class="cls-4" x="55.15946" y="95.7433" width="2.16468" height="2.16258"/><polygon class="cls-6" points="57.324 93.579 57.324 95.743 55.159 95.743 55.159 93.579 57.312 93.579 57.324 93.579"/><polygon class="cls-6" points="57.312 91.417 57.312 93.579 55.159 93.579 55.149 93.579 55.149 91.417 57.312 91.417"/><rect class="cls-7" x="55.14925" y="89.25238" width="2.16239" height="2.16429"/><rect class="cls-7" x="55.14925" y="87.08979" width="2.16239" height="2.16258"/><rect class="cls-6" x="55.14925" y="84.92496" width="2.16239" height="2.16483"/><rect class="cls-6" x="55.14925" y="82.76277" width="2.16239" height="2.16219"/><rect class="cls-4" x="55.14925" y="80.60058" width="2.16239" height="2.16219"/><polygon class="cls-4" points="55.159 93.579 55.159 95.743 52.997 95.743 52.997 93.579 55.149 93.579 55.159 93.579"/><polygon class="cls-6" points="55.149 91.417 55.149 93.579 52.997 93.579 52.987 93.579 52.987 91.417 55.149 91.417"/><rect class="cls-6" x="52.98686" y="89.25238" width="2.16239" height="2.16429"/><rect class="cls-6" x="52.98686" y="87.08979" width="2.16239" height="2.16258"/><rect class="cls-6" x="52.98686" y="84.92496" width="2.16239" height="2.16483"/><rect class="cls-4" x="52.98686" y="82.76277" width="2.16239" height="2.16219"/><polygon class="cls-4" points="52.987 91.417 52.987 93.579 50.835 93.579 50.823 93.579 50.823 91.417 52.987 91.417"/><rect class="cls-4" x="50.82257" y="89.25238" width="2.16429" height="2.16429"/><rect class="cls-4" x="50.82257" y="87.08979" width="2.16429" height="2.16258"/><rect class="cls-4" x="50.82257" y="84.92496" width="2.16429" height="2.16483"/><polygon class="cls-4" points="78.95 129.242 78.95 131.404 76.798 131.404 76.787 131.404 76.787 129.242 78.95 129.242"/><rect class="cls-4" x="76.78749" y="127.0777" width="2.16239" height="2.16429"/><rect class="cls-4" x="76.78749" y="124.91512" width="2.16239" height="2.16258"/><rect class="cls-4" x="76.78749" y="122.75028" width="2.16239" height="2.16483"/><polygon class="cls-4" points="76.798 131.404 76.798 133.569 74.636 133.569 74.636 131.404 76.787 131.404 76.798 131.404"/><polygon class="cls-5" points="76.787 129.242 76.787 131.404 74.636 131.404 74.623 131.404 74.623 129.242 76.787 129.242"/><rect class="cls-5" x="74.6232" y="127.0777" width="2.16429" height="2.16429"/><rect class="cls-5" x="74.6232" y="124.91512" width="2.16429" height="2.16258"/><rect class="cls-5" x="74.6232" y="122.75028" width="2.16429" height="2.16483"/><rect class="cls-4" x="74.6232" y="120.58809" width="2.16429" height="2.16219"/><rect class="cls-4" x="72.47144" y="133.56862" width="2.16425" height="2.16258"/><polygon class="cls-5" points="74.636 131.404 74.636 133.569 72.471 133.569 72.471 131.404 74.623 131.404 74.636 131.404"/><polygon class="cls-5" points="74.623 129.242 74.623 131.404 72.471 131.404 72.461 131.404 72.461 129.242 74.623 129.242"/><rect class="cls-5" x="72.46081" y="127.0777" width="2.16239" height="2.16429"/><rect class="cls-5" x="72.46081" y="124.91512" width="2.16239" height="2.16258"/><rect class="cls-5" x="72.46081" y="122.75028" width="2.16239" height="2.16483"/><rect class="cls-5" x="72.46081" y="120.58809" width="2.16239" height="2.16219"/><rect class="cls-4" x="72.46081" y="118.4259" width="2.16239" height="2.16219"/><rect class="cls-4" x="70.30906" y="135.73121" width="2.16239" height="2.16219"/><rect class="cls-5" x="70.30906" y="133.56862" width="2.16239" height="2.16258"/><polygon class="cls-5" points="72.471 131.404 72.471 133.569 70.309 133.569 70.309 131.404 72.461 131.404 72.471 131.404"/><polygon class="cls-6" points="72.461 129.242 72.461 131.404 70.309 131.404 70.298 131.404 70.298 129.242 72.461 129.242"/><rect class="cls-6" x="70.29842" y="127.0777" width="2.16239" height="2.16429"/><rect class="cls-6" x="70.29842" y="124.91512" width="2.16239" height="2.16258"/><rect class="cls-6" x="70.29842" y="122.75028" width="2.16239" height="2.16483"/><rect class="cls-5" x="70.29842" y="120.58809" width="2.16239" height="2.16219"/><rect class="cls-4" x="70.29842" y="118.4259" width="2.16239" height="2.16219"/><rect class="cls-4" x="68.14477" y="137.8934" width="2.16429" height="2.16483"/><rect class="cls-5" x="68.14477" y="135.73121" width="2.16429" height="2.16219"/><rect class="cls-5" x="68.14477" y="133.56862" width="2.16429" height="2.16258"/><polygon class="cls-6" points="70.309 131.404 70.309 133.569 68.145 133.569 68.145 131.404 70.298 131.404 70.309 131.404"/><polygon class="cls-6" points="70.298 129.242 70.298 131.404 68.145 131.404 68.134 131.404 68.134 129.242 70.298 129.242"/><rect class="cls-6" x="68.13378" y="127.0777" width="2.16464" height="2.16429"/><rect class="cls-6" x="68.13378" y="124.91512" width="2.16464" height="2.16258"/><rect class="cls-6" x="68.13378" y="122.75028" width="2.16464" height="2.16483"/><rect class="cls-4" x="68.13378" y="120.58809" width="2.16464" height="2.16219"/><rect class="cls-4" x="65.98199" y="140.05823" width="2.16278" height="2.16258"/><rect class="cls-5" x="65.98199" y="137.8934" width="2.16278" height="2.16483"/><rect class="cls-5" x="65.98199" y="135.73121" width="2.16278" height="2.16219"/><rect class="cls-6" x="65.98199" y="133.56862" width="2.16278" height="2.16258"/><polygon class="cls-6" points="68.145 131.404 68.145 133.569 65.982 133.569 65.982 131.404 68.134 131.404 68.145 131.404"/><polygon class="cls-6" points="68.134 129.242 68.134 131.404 65.982 131.404 65.976 131.404 65.971 131.404 65.971 129.242 68.134 129.242"/><rect class="cls-6" x="65.9714" y="127.0777" width="2.16239" height="2.16429"/><rect class="cls-6" x="65.9714" y="124.91512" width="2.16239" height="2.16258"/><rect class="cls-4" x="65.9714" y="122.75028" width="2.16239" height="2.16483"/><rect class="cls-4" x="63.81355" y="142.22081" width="2.162" height="2.16429"/><rect class="cls-5" x="63.81355" y="140.05823" width="2.162" height="2.16258"/><rect class="cls-5" x="63.81355" y="137.8934" width="2.162" height="2.16483"/><rect class="cls-6" x="63.81355" y="135.73121" width="2.162" height="2.16219"/><rect class="cls-6" x="63.81355" y="133.56862" width="2.162" height="2.16258"/><polygon class="cls-6" points="65.976 131.404 65.976 133.569 63.814 133.569 63.814 131.404 65.965 131.404 65.971 131.404 65.976 131.404"/><polygon class="cls-6" points="65.965 129.242 65.965 131.404 63.814 131.404 63.803 131.404 63.803 129.242 65.965 129.242"/><rect class="cls-6" x="63.80256" y="127.0777" width="2.16278" height="2.16429"/><rect class="cls-4" x="63.80256" y="124.91512" width="2.16278" height="2.16258"/><rect class="cls-4" x="61.65116" y="140.05823" width="2.16239" height="2.16258"/><rect class="cls-5" x="61.65116" y="137.8934" width="2.16239" height="2.16483"/><rect class="cls-6" x="61.65116" y="135.73121" width="2.16239" height="2.16219"/><rect class="cls-6" x="61.65116" y="133.56862" width="2.16239" height="2.16258"/><polygon class="cls-6" points="63.814 131.404 63.814 133.569 61.651 133.569 61.651 131.404 63.803 131.404 63.814 131.404"/><polygon class="cls-6" points="63.803 129.242 63.803 131.404 61.651 131.404 61.638 131.404 61.638 129.242 63.803 129.242"/><rect class="cls-6" x="61.63828" y="127.0777" width="2.16429" height="2.16429"/><rect class="cls-5" x="61.63828" y="124.91512" width="2.16429" height="2.16258"/><rect class="cls-4" x="61.63828" y="122.75028" width="2.16429" height="2.16483"/><rect class="cls-4" x="59.48652" y="137.8934" width="2.16464" height="2.16483"/><rect class="cls-5" x="59.48652" y="135.73121" width="2.16464" height="2.16219"/><rect class="cls-6" x="59.48652" y="133.56862" width="2.16464" height="2.16258"/><polygon class="cls-6" points="61.651 131.404 61.651 133.569 59.487 133.569 59.487 131.404 61.638 131.404 61.651 131.404"/><polygon class="cls-6" points="61.638 129.242 61.638 131.404 59.487 131.404 59.476 131.404 59.476 129.242 61.638 129.242"/><rect class="cls-6" x="59.47589" y="127.0777" width="2.16238" height="2.16429"/><rect class="cls-6" x="59.47589" y="124.91512" width="2.16238" height="2.16258"/><rect class="cls-5" x="59.47589" y="122.75028" width="2.16238" height="2.16483"/><rect class="cls-4" x="59.47589" y="120.58809" width="2.16238" height="2.16219"/><rect class="cls-4" x="57.32414" y="135.73121" width="2.16239" height="2.16219"/><rect class="cls-5" x="57.32414" y="133.56862" width="2.16239" height="2.16258"/><polygon class="cls-6" points="59.487 131.404 59.487 133.569 57.324 133.569 57.324 131.404 59.476 131.404 59.487 131.404"/><polygon class="cls-6" points="59.476 129.242 59.476 131.404 57.324 131.404 57.312 131.404 57.312 129.242 59.476 129.242"/><rect class="cls-7" x="57.31164" y="127.0777" width="2.16425" height="2.16429"/><rect class="cls-7" x="57.31164" y="124.91512" width="2.16425" height="2.16258"/><rect class="cls-6" x="57.31164" y="122.75028" width="2.16425" height="2.16483"/><rect class="cls-6" x="57.31164" y="120.58809" width="2.16425" height="2.16219"/><rect class="cls-4" x="57.31164" y="118.4259" width="2.16425" height="2.16219"/><rect class="cls-4" x="55.15946" y="133.56862" width="2.16468" height="2.16258"/><polygon class="cls-6" points="57.324 131.404 57.324 133.569 55.159 133.569 55.159 131.404 57.312 131.404 57.324 131.404"/><polygon class="cls-6" points="57.312 129.242 57.312 131.404 55.159 131.404 55.149 131.404 55.149 129.242 57.312 129.242"/><rect class="cls-7" x="55.14925" y="127.0777" width="2.16239" height="2.16429"/><rect class="cls-7" x="55.14925" y="124.91512" width="2.16239" height="2.16258"/><rect class="cls-6" x="55.14925" y="122.75028" width="2.16239" height="2.16483"/><rect class="cls-6" x="55.14925" y="120.58809" width="2.16239" height="2.16219"/><rect class="cls-4" x="55.14925" y="118.4259" width="2.16239" height="2.16219"/><polygon class="cls-4" points="55.159 131.404 55.159 133.569 52.997 133.569 52.997 131.404 55.149 131.404 55.159 131.404"/><polygon class="cls-6" points="55.149 129.242 55.149 131.404 52.997 131.404 52.987 131.404 52.987 129.242 55.149 129.242"/><rect class="cls-6" x="52.98686" y="127.0777" width="2.16239" height="2.16429"/><rect class="cls-6" x="52.98686" y="124.91512" width="2.16239" height="2.16258"/><rect class="cls-6" x="52.98686" y="122.75028" width="2.16239" height="2.16483"/><rect class="cls-4" x="52.98686" y="120.58809" width="2.16239" height="2.16219"/><polygon class="cls-4" points="52.987 129.242 52.987 131.404 50.835 131.404 50.823 131.404 50.823 129.242 52.987 129.242"/><rect class="cls-4" x="50.82257" y="127.0777" width="2.16429" height="2.16429"/><rect class="cls-4" x="50.82257" y="124.91512" width="2.16429" height="2.16258"/><rect class="cls-4" x="50.82257" y="122.75028" width="2.16429" height="2.16483"/><g class="cls-8"><polygon class="cls-5" points="372.643 257.312 372.643 262.883 367.093 262.883 367.067 262.883 367.067 257.312 372.643 257.312"/><rect class="cls-5" x="367.06666" y="251.73457" width="5.5761" height="5.5772"/><rect class="cls-5" x="361.52266" y="301.89817" width="5.5703" height="5.5723"/><rect class="cls-5" x="361.52266" y="296.32737" width="5.5703" height="5.5708"/><polygon class="cls-5" points="367.093 262.883 367.093 268.46 361.523 268.46 361.523 262.883 367.067 262.883 367.093 262.883"/><polygon class="cls-5" points="367.067 257.312 367.067 262.883 361.523 262.883 361.494 262.883 361.494 257.312 367.067 257.312"/><rect class="cls-5" x="361.49436" y="251.73457" width="5.5723" height="5.5772"/><rect class="cls-5" x="355.95036" y="301.89817" width="5.5723" height="5.5723"/><rect class="cls-5" x="355.95036" y="296.32737" width="5.5723" height="5.5708"/><rect class="cls-5" x="355.95036" y="290.75017" width="5.5723" height="5.5772"/><rect class="cls-5" x="355.95036" y="285.17897" width="5.5723" height="5.5712"/><rect class="cls-5" x="355.95036" y="268.46017" width="5.5723" height="5.5708"/><polygon class="cls-5" points="361.523 262.883 361.523 268.46 355.95 268.46 355.95 262.883 361.494 262.883 361.523 262.883"/><polygon class="cls-5" points="361.494 257.312 361.494 262.883 355.95 262.883 355.918 262.883 355.918 257.312 361.494 257.312"/><rect class="cls-5" x="355.91816" y="251.73457" width="5.5762" height="5.5772"/><rect class="cls-5" x="350.37426" y="301.89817" width="5.5761" height="5.5723"/><rect class="cls-5" x="350.37426" y="296.32737" width="5.5761" height="5.5708"/><rect class="cls-5" x="350.37426" y="290.75017" width="5.5761" height="5.5772"/><rect class="cls-5" x="350.37426" y="285.17897" width="5.5761" height="5.5712"/><rect class="cls-5" x="350.37426" y="279.60177" width="5.5761" height="5.5772"/><rect class="cls-5" x="350.37426" y="274.03097" width="5.5761" height="5.5708"/><rect class="cls-5" x="350.37426" y="268.46017" width="5.5761" height="5.5708"/><polygon class="cls-5" points="355.95 262.883 355.95 268.46 350.374 268.46 350.374 262.883 355.918 262.883 355.95 262.883"/><polygon class="cls-5" points="355.918 257.312 355.918 262.883 350.374 262.883 350.346 262.883 350.346 257.312 355.918 257.312"/><rect class="cls-5" x="350.34587" y="251.73457" width="5.57229" height="5.5772"/><rect class="cls-5" x="344.80196" y="296.32737" width="5.5723" height="5.5708"/><rect class="cls-5" x="344.80196" y="290.75017" width="5.5723" height="5.5772"/><rect class="cls-5" x="344.80196" y="285.17897" width="5.5723" height="5.5712"/><rect class="cls-5" x="344.80196" y="279.60177" width="5.5723" height="5.5772"/><rect class="cls-5" x="344.80196" y="274.03097" width="5.5723" height="5.5708"/><rect class="cls-5" x="344.80196" y="268.46017" width="5.5723" height="5.5708"/><polygon class="cls-5" points="350.374 262.883 350.374 268.46 344.802 268.46 344.802 262.883 350.346 262.883 350.374 262.883"/><polygon class="cls-5" points="350.346 257.312 350.346 262.883 344.802 262.883 344.776 262.883 344.776 257.312 350.346 257.312"/><rect class="cls-5" x="344.77556" y="251.73457" width="5.57031" height="5.5772"/><rect class="cls-5" x="339.22576" y="296.32737" width="5.5762" height="5.5708"/><rect class="cls-5" x="339.22576" y="290.75017" width="5.5762" height="5.5772"/><rect class="cls-5" x="339.22576" y="285.17897" width="5.5762" height="5.5712"/><rect class="cls-5" x="339.22576" y="279.60177" width="5.5762" height="5.5772"/><rect class="cls-5" x="339.22576" y="274.03097" width="5.5762" height="5.5708"/><rect class="cls-5" x="339.22576" y="268.46017" width="5.5762" height="5.5708"/><polygon class="cls-5" points="344.802 262.883 344.802 268.46 339.226 268.46 339.226 262.883 344.776 262.883 344.802 262.883"/><polygon class="cls-5" points="344.776 257.312 344.776 262.883 339.226 262.883 339.198 262.883 339.198 257.312 344.776 257.312"/><rect class="cls-5" x="339.19846" y="251.73457" width="5.5771" height="5.5772"/><rect class="cls-5" x="339.19846" y="246.16327" width="5.5771" height="5.5713"/><rect class="cls-5" x="339.19846" y="240.58717" width="5.5771" height="5.5761"/><rect class="cls-5" x="333.65406" y="290.75017" width="5.5717" height="5.5772"/><rect class="cls-5" x="333.65406" y="285.17897" width="5.5717" height="5.5712"/><rect class="cls-5" x="333.65406" y="279.60177" width="5.5717" height="5.5772"/><rect class="cls-5" x="333.65406" y="274.03097" width="5.5717" height="5.5708"/><rect class="cls-5" x="333.65406" y="268.46017" width="5.5717" height="5.5708"/><polygon class="cls-5" points="339.226 262.883 339.226 268.46 333.654 268.46 333.654 262.883 339.198 262.883 339.226 262.883"/><polygon class="cls-5" points="339.198 257.312 339.198 262.883 333.654 262.883 333.638 262.883 333.627 262.883 333.627 257.312 339.198 257.312"/><rect class="cls-5" x="333.62716" y="251.73457" width="5.5713" height="5.5772"/><rect class="cls-5" x="333.62716" y="246.16327" width="5.5713" height="5.5713"/><rect class="cls-5" x="333.62716" y="240.58717" width="5.5713" height="5.5761"/><rect class="cls-5" x="333.62716" y="235.01537" width="5.5713" height="5.5718"/><rect class="cls-5" x="333.62716" y="229.44457" width="5.5713" height="5.5708"/><rect class="cls-5" x="328.06706" y="285.17897" width="5.5713" height="5.5712"/><rect class="cls-5" x="328.06706" y="279.60177" width="5.5713" height="5.5772"/><rect class="cls-5" x="328.06706" y="274.03097" width="5.5713" height="5.5708"/><rect class="cls-5" x="328.06706" y="268.46017" width="5.5713" height="5.5708"/><polygon class="cls-5" points="333.638 262.883 333.638 268.46 328.067 268.46 328.067 262.883 333.611 262.883 333.627 262.883 333.638 262.883"/><polygon class="cls-5" points="333.611 257.312 333.611 262.883 328.067 262.883 328.04 262.883 328.04 257.312 333.611 257.312"/><rect class="cls-5" x="328.04026" y="251.73457" width="5.5708" height="5.5772"/><rect class="cls-5" x="328.04026" y="246.16327" width="5.5708" height="5.5713"/><rect class="cls-5" x="328.04026" y="240.58717" width="5.5708" height="5.5761"/><rect class="cls-5" x="328.04026" y="235.01537" width="5.5708" height="5.5718"/><rect class="cls-5" x="328.04026" y="229.44457" width="5.5708" height="5.5708"/><rect class="cls-5" x="328.04026" y="223.86787" width="5.5708" height="5.5767"/><rect class="cls-5" x="322.49576" y="290.75017" width="5.5713" height="5.5772"/><rect class="cls-5" x="322.49576" y="285.17897" width="5.5713" height="5.5712"/><rect class="cls-5" x="322.49576" y="279.60177" width="5.5713" height="5.5772"/><rect class="cls-5" x="322.49576" y="274.03097" width="5.5713" height="5.5708"/><rect class="cls-5" x="322.49576" y="268.46017" width="5.5713" height="5.5708"/><polygon class="cls-5" points="328.067 262.883 328.067 268.46 322.496 268.46 322.496 262.883 328.04 262.883 328.067 262.883"/><polygon class="cls-5" points="328.04 257.312 328.04 262.883 322.496 262.883 322.464 262.883 322.464 257.312 328.04 257.312"/><rect class="cls-5" x="322.46356" y="251.73457" width="5.5767" height="5.5772"/><rect class="cls-5" x="322.46356" y="246.16327" width="5.5767" height="5.5713"/><rect class="cls-5" x="322.46356" y="240.58717" width="5.5767" height="5.5761"/><rect class="cls-5" x="322.46356" y="235.01537" width="5.5767" height="5.5718"/><rect class="cls-5" x="322.46356" y="229.44457" width="5.5767" height="5.5708"/><rect class="cls-5" x="316.91866" y="296.32737" width="5.5771" height="5.5708"/><rect class="cls-5" x="316.91866" y="290.75017" width="5.5771" height="5.5772"/><rect class="cls-5" x="316.91866" y="285.17897" width="5.5771" height="5.5712"/><rect class="cls-5" x="316.91866" y="279.60177" width="5.5771" height="5.5772"/><rect class="cls-5" x="316.91866" y="274.03097" width="5.5771" height="5.5708"/><rect class="cls-5" x="316.91866" y="268.46017" width="5.5771" height="5.5708"/><polygon class="cls-5" points="322.496 262.883 322.496 268.46 316.919 268.46 316.919 262.883 322.464 262.883 322.496 262.883"/><polygon class="cls-5" points="322.464 257.312 322.464 262.883 316.919 262.883 316.892 262.883 316.892 257.312 322.464 257.312"/><rect class="cls-5" x="316.89176" y="251.73457" width="5.5718" height="5.5772"/><rect class="cls-5" x="316.89176" y="246.16327" width="5.5718" height="5.5713"/><rect class="cls-5" x="316.89176" y="240.58717" width="5.5718" height="5.5761"/><rect class="cls-5" x="311.34787" y="296.32737" width="5.57079" height="5.5708"/><rect class="cls-5" x="311.34787" y="290.75017" width="5.57079" height="5.5772"/><rect class="cls-5" x="311.34787" y="285.17897" width="5.57079" height="5.5712"/><rect class="cls-5" x="311.34787" y="279.60177" width="5.57079" height="5.5772"/><rect class="cls-5" x="311.34787" y="274.03097" width="5.57079" height="5.5708"/><rect class="cls-5" x="311.34787" y="268.46017" width="5.57079" height="5.5708"/><polygon class="cls-5" points="316.919 262.883 316.919 268.46 311.348 268.46 311.348 262.883 316.892 262.883 316.919 262.883"/><polygon class="cls-5" points="316.892 257.312 316.892 262.883 311.348 262.883 311.315 262.883 311.315 257.312 316.892 257.312"/><rect class="cls-5" x="311.31516" y="251.73457" width="5.5766" height="5.5772"/><rect class="cls-5" x="305.77076" y="301.89817" width="5.5771" height="5.5723"/><rect class="cls-5" x="305.77076" y="296.32737" width="5.5771" height="5.5708"/><rect class="cls-5" x="305.77076" y="290.75017" width="5.5771" height="5.5772"/><rect class="cls-5" x="305.77076" y="285.17897" width="5.5771" height="5.5712"/><rect class="cls-5" x="305.77076" y="279.60177" width="5.5771" height="5.5772"/><rect class="cls-5" x="305.77076" y="274.03097" width="5.5771" height="5.5708"/><rect class="cls-5" x="305.77076" y="268.46017" width="5.5771" height="5.5708"/><polygon class="cls-5" points="311.348 262.883 311.348 268.46 305.771 268.46 305.771 262.883 311.315 262.883 311.348 262.883"/><polygon class="cls-5" points="311.315 257.312 311.315 262.883 305.771 262.883 305.744 262.883 305.744 257.312 311.315 257.312"/><rect class="cls-5" x="305.74387" y="251.73457" width="5.5713" height="5.5772"/><rect class="cls-5" x="300.19946" y="301.89817" width="5.5713" height="5.5723"/><rect class="cls-5" x="300.19946" y="296.32737" width="5.5713" height="5.5708"/><rect class="cls-5" x="300.19946" y="290.75017" width="5.5713" height="5.5772"/><rect class="cls-5" x="300.19946" y="285.17897" width="5.5713" height="5.5712"/><rect class="cls-5" x="300.19946" y="268.46017" width="5.5713" height="5.5708"/><polygon class="cls-5" points="305.771 262.883 305.771 268.46 300.199 268.46 300.199 262.883 305.744 262.883 305.771 262.883"/><polygon class="cls-5" points="305.744 257.312 305.744 262.883 300.199 262.883 300.173 262.883 300.173 257.312 305.744 257.312"/><rect class="cls-5" x="300.17306" y="251.73457" width="5.5708" height="5.5772"/><rect class="cls-5" x="294.62816" y="301.89817" width="5.5713" height="5.5723"/><rect class="cls-5" x="294.62816" y="296.32737" width="5.5713" height="5.5708"/><polygon class="cls-5" points="300.199 262.883 300.199 268.46 294.628 268.46 294.628 262.883 300.173 262.883 300.199 262.883"/><polygon class="cls-5" points="300.173 257.312 300.173 262.883 294.628 262.883 294.596 262.883 294.596 257.312 300.173 257.312"/><rect class="cls-5" x="294.59636" y="251.73457" width="5.5767" height="5.5772"/><polygon class="cls-5" points="294.596 257.312 294.596 262.883 289.052 262.883 289.025 262.883 289.025 257.312 294.596 257.312"/><rect class="cls-5" x="289.02466" y="251.73457" width="5.5717" height="5.5772"/></g><g class="cls-8"><rect class="cls-5" x="461.44205" y="237.80197" width="5.5713" height="5.5703"/><rect class="cls-5" x="461.44205" y="232.23067" width="5.5713" height="5.5713"/><rect class="cls-5" x="461.44205" y="226.65357" width="5.5713" height="5.5771"/><rect class="cls-5" x="455.86585" y="243.37227" width="5.5762" height="5.5782"/><rect class="cls-5" x="455.86585" y="237.80197" width="5.5762" height="5.5703"/><rect class="cls-5" x="455.86585" y="232.23067" width="5.5762" height="5.5713"/><rect class="cls-5" x="455.86585" y="226.65357" width="5.5762" height="5.5771"/><rect class="cls-5" x="450.29455" y="248.95047" width="5.5713" height="5.5703"/><rect class="cls-5" x="450.29455" y="243.37227" width="5.5713" height="5.5782"/><rect class="cls-5" x="450.29455" y="237.80197" width="5.5713" height="5.5703"/><rect class="cls-5" x="450.29455" y="232.23067" width="5.5713" height="5.5713"/><rect class="cls-5" x="450.29455" y="226.65357" width="5.5713" height="5.5771"/><rect class="cls-5" x="444.72275" y="254.52077" width="5.5718" height="5.5771"/><rect class="cls-5" x="444.72275" y="248.95047" width="5.5718" height="5.5703"/><rect class="cls-5" x="444.72275" y="243.37227" width="5.5718" height="5.5782"/><rect class="cls-5" x="444.72275" y="237.80197" width="5.5718" height="5.5703"/><rect class="cls-5" x="444.72275" y="232.23067" width="5.5718" height="5.5713"/><polygon class="cls-5" points="444.723 260.098 444.723 265.669 439.173 265.669 439.146 265.669 439.146 260.098 444.723 260.098"/><rect class="cls-5" x="439.14615" y="254.52077" width="5.5766" height="5.5771"/><rect class="cls-5" x="439.14615" y="248.95047" width="5.5766" height="5.5703"/><rect class="cls-5" x="439.14615" y="243.37227" width="5.5766" height="5.5782"/><rect class="cls-5" x="439.14615" y="237.80197" width="5.5766" height="5.5703"/><polygon class="cls-5" points="439.173 265.669 439.173 271.246 433.602 271.246 433.602 265.669 439.146 265.669 439.173 265.669"/><polygon class="cls-5" points="439.146 260.098 439.146 265.669 433.602 265.669 433.586 265.669 433.575 265.669 433.575 260.098 439.146 260.098"/><rect class="cls-5" x="433.57535" y="254.52077" width="5.5708" height="5.5771"/><rect class="cls-5" x="433.57535" y="248.95047" width="5.5708" height="5.5703"/><rect class="cls-5" x="433.57535" y="243.37227" width="5.5708" height="5.5782"/><rect class="cls-5" x="428.01435" y="293.53637" width="5.5717" height="5.5772"/><rect class="cls-5" x="428.01435" y="287.96607" width="5.5717" height="5.5703"/><rect class="cls-5" x="433.60215" y="287.96607" width="5.5713" height="5.5703"/><rect class="cls-5" x="428.01435" y="271.24637" width="5.5717" height="5.5713"/><polygon class="cls-5" points="433.586 265.669 433.586 271.246 428.014 271.246 428.014 265.669 433.559 265.669 433.575 265.669 433.586 265.669"/><polygon class="cls-5" points="433.559 260.098 433.559 265.669 428.014 265.669 427.988 265.669 427.988 260.098 433.559 260.098"/><rect class="cls-5" x="427.98795" y="254.52077" width="5.5708" height="5.5771"/><rect class="cls-5" x="427.98795" y="248.95047" width="5.5708" height="5.5703"/><rect class="cls-5" x="422.44305" y="287.96607" width="5.5713" height="5.5703"/><rect class="cls-5" x="422.44305" y="282.38797" width="5.5713" height="5.5781"/><rect class="cls-5" x="422.44305" y="276.81767" width="5.5713" height="5.5703"/><rect class="cls-5" x="422.44305" y="271.24637" width="5.5713" height="5.5713"/><polygon class="cls-5" points="428.014 265.669 428.014 271.246 422.443 271.246 422.443 265.669 427.988 265.669 428.014 265.669"/><polygon class="cls-5" points="427.988 260.098 427.988 265.669 422.443 265.669 422.411 265.669 422.411 260.098 427.988 260.098"/><rect class="cls-5" x="422.41075" y="254.52077" width="5.5772" height="5.5771"/><rect class="cls-5" x="416.86685" y="282.38797" width="5.5762" height="5.5781"/><rect class="cls-5" x="416.86685" y="276.81767" width="5.5762" height="5.5703"/><rect class="cls-5" x="416.86685" y="271.24637" width="5.5762" height="5.5713"/><polygon class="cls-5" points="422.443 265.669 422.443 271.246 416.867 271.246 416.867 265.669 422.411 265.669 422.443 265.669"/><polygon class="cls-5" points="422.411 260.098 422.411 265.669 416.867 265.669 416.84 265.669 416.84 260.098 422.411 260.098"/><rect class="cls-5" x="411.29555" y="282.38797" width="5.5713" height="5.5781"/><rect class="cls-5" x="411.29555" y="276.81767" width="5.5713" height="5.5703"/><rect class="cls-5" x="411.29555" y="271.24637" width="5.5713" height="5.5713"/><polygon class="cls-5" points="416.867 265.669 416.867 271.246 411.296 271.246 411.296 265.669 416.84 265.669 416.867 265.669"/><rect class="cls-5" x="405.71845" y="287.96607" width="5.5771" height="5.5703"/><rect class="cls-5" x="405.71845" y="282.38797" width="5.5771" height="5.5781"/><rect class="cls-5" x="405.71845" y="276.81767" width="5.5771" height="5.5703"/><rect class="cls-5" x="405.71845" y="271.24637" width="5.5771" height="5.5713"/><polygon class="cls-5" points="411.296 265.669 411.296 271.246 405.718 271.246 405.718 265.669 411.263 265.669 411.296 265.669"/><rect class="cls-5" x="400.14715" y="293.53637" width="5.5713" height="5.5772"/><rect class="cls-5" x="400.14715" y="287.96607" width="5.5713" height="5.5703"/><rect class="cls-5" x="400.14715" y="282.38797" width="5.5713" height="5.5781"/><polygon class="cls-5" points="405.718 265.669 405.718 271.246 400.147 271.246 400.147 265.669 405.692 265.669 405.718 265.669"/><polygon class="cls-5" points="405.692 260.098 405.692 265.669 400.147 265.669 400.12 265.669 400.12 260.098 405.692 260.098"/><rect class="cls-5" x="394.57585" y="299.11357" width="5.5713" height="5.5712"/><rect class="cls-5" x="394.57585" y="293.53637" width="5.5713" height="5.5772"/><rect class="cls-5" x="394.57585" y="287.96607" width="5.5713" height="5.5703"/><polygon class="cls-5" points="400.147 265.669 400.147 271.246 394.576 271.246 394.576 265.669 400.12 265.669 400.147 265.669"/><rect class="cls-5" x="388.99965" y="299.11357" width="5.5762" height="5.5712"/><rect class="cls-5" x="388.99965" y="293.53637" width="5.5762" height="5.5772"/></g><g class="cls-8"><rect class="cls-5" x="258.76447" y="282.38842" width="5.5708" height="5.5708"/><polygon class="cls-5" points="264.335 276.811 264.335 282.388 258.764 282.388 258.764 276.811 264.308 276.811 264.335 276.811"/><polygon class="cls-5" points="264.308 271.24 264.308 276.811 258.764 276.811 258.732 276.811 258.732 271.24 264.308 271.24"/><rect class="cls-5" x="253.18727" y="293.53102" width="5.5772" height="5.5766"/><rect class="cls-5" x="253.18727" y="287.95922" width="5.5772" height="5.5718"/><rect class="cls-5" x="253.18727" y="282.38842" width="5.5772" height="5.5708"/><polygon class="cls-5" points="258.764 276.811 258.764 282.388 253.187 282.388 253.187 276.811 258.732 276.811 258.764 276.811"/><polygon class="cls-5" points="258.732 271.24 258.732 276.811 253.187 276.811 253.16 276.811 253.16 271.24 258.732 271.24"/><rect class="cls-5" x="253.15997" y="265.66382" width="5.5722" height="5.5762"/><rect class="cls-5" x="253.15997" y="260.09302" width="5.5722" height="5.5708"/><rect class="cls-5" x="247.61597" y="299.10762" width="5.5713" height="5.5718"/><rect class="cls-5" x="247.61597" y="293.53102" width="5.5713" height="5.5766"/><rect class="cls-5" x="247.61597" y="287.95922" width="5.5713" height="5.5718"/><rect class="cls-5" x="247.61597" y="282.38842" width="5.5713" height="5.5708"/><polygon class="cls-5" points="253.187 276.811 253.187 282.388 247.616 282.388 247.616 276.811 253.16 276.811 253.187 276.811"/><polygon class="cls-5" points="253.16 271.24 253.16 276.811 247.616 276.811 247.589 276.811 247.589 271.24 253.16 271.24"/><rect class="cls-5" x="247.58917" y="265.66382" width="5.5708" height="5.5762"/><rect class="cls-5" x="247.58917" y="260.09302" width="5.5708" height="5.5708"/><rect class="cls-5" x="247.58917" y="254.51542" width="5.5708" height="5.5776"/><polygon class="cls-5" points="253.16 232.224 253.16 237.797 247.589 237.797 247.589 232.224 253.149 232.224 253.16 232.224"/><rect class="cls-5" x="242.03977" y="299.10762" width="5.5762" height="5.5718"/><rect class="cls-5" x="242.03977" y="293.53102" width="5.5762" height="5.5766"/><rect class="cls-5" x="242.03977" y="287.95922" width="5.5762" height="5.5718"/><rect class="cls-5" x="242.03977" y="282.38842" width="5.5762" height="5.5708"/><polygon class="cls-5" points="247.616 276.811 247.616 282.388 242.04 282.388 242.04 276.811 247.589 276.811 247.616 276.811"/><polygon class="cls-5" points="247.589 271.24 247.589 276.811 242.04 276.811 242.012 276.811 242.012 271.24 247.589 271.24"/><rect class="cls-5" x="242.01247" y="265.66382" width="5.5767" height="5.5762"/><rect class="cls-5" x="242.01247" y="260.09302" width="5.5767" height="5.5708"/><rect class="cls-5" x="242.01247" y="254.51542" width="5.5767" height="5.5776"/><rect class="cls-5" x="242.01247" y="237.79662" width="5.5767" height="5.5762"/><polygon class="cls-5" points="247.589 232.224 247.589 237.797 242.012 237.797 242.012 232.224 247.578 232.224 247.589 232.224"/><polygon class="cls-5" points="247.578 226.654 247.578 232.224 242.012 232.224 242.002 232.224 242.002 226.654 242.034 226.654 247.578 226.654"/><rect class="cls-5" x="236.46807" y="304.67942" width="5.5717" height="5.5762"/><rect class="cls-5" x="236.46807" y="299.10762" width="5.5717" height="5.5718"/><rect class="cls-5" x="236.46807" y="293.53102" width="5.5717" height="5.5766"/><rect class="cls-5" x="236.46807" y="287.95922" width="5.5717" height="5.5718"/><rect class="cls-5" x="236.46807" y="282.38842" width="5.5717" height="5.5708"/><polygon class="cls-5" points="242.04 276.811 242.04 282.388 236.468 282.388 236.468 276.811 242.012 276.811 242.04 276.811"/><polygon class="cls-5" points="242.034 221.083 242.034 226.654 242.002 226.654 236.463 226.654 236.463 221.083 242.034 221.083"/><polygon class="cls-5" points="242.012 271.24 242.012 276.811 236.468 276.811 236.452 276.811 236.441 276.811 236.441 271.24 242.012 271.24"/><rect class="cls-5" x="236.44117" y="265.66382" width="5.5713" height="5.5762"/><rect class="cls-5" x="236.44117" y="260.09302" width="5.5713" height="5.5708"/><rect class="cls-5" x="236.44117" y="254.51542" width="5.5713" height="5.5776"/><rect class="cls-5" x="236.44117" y="248.94462" width="5.5713" height="5.5708"/><rect class="cls-5" x="236.44117" y="243.37282" width="5.5713" height="5.5718"/><rect class="cls-5" x="236.44117" y="237.79662" width="5.5713" height="5.5762"/><polygon class="cls-5" points="242.012 232.224 242.012 237.797 236.441 237.797 236.441 232.224 242.002 232.224 242.012 232.224"/><polygon class="cls-5" points="242.002 226.654 242.002 232.224 236.441 232.224 236.43 232.224 236.43 226.654 236.447 226.654 236.463 226.654 242.002 226.654"/><rect class="cls-5" x="230.88067" y="304.67942" width="5.5713" height="5.5762"/><rect class="cls-5" x="230.88067" y="299.10762" width="5.5713" height="5.5718"/><rect class="cls-5" x="230.88067" y="293.53102" width="5.5713" height="5.5766"/><rect class="cls-5" x="230.88067" y="287.95922" width="5.5713" height="5.5718"/><rect class="cls-5" x="230.88067" y="282.38842" width="5.5713" height="5.5708"/><polygon class="cls-5" points="236.452 276.811 236.452 282.388 230.881 282.388 230.881 276.811 236.425 276.811 236.441 276.811 236.452 276.811"/><polygon class="cls-5" points="236.447 221.083 236.447 226.654 236.43 226.654 236.414 226.654 230.875 226.654 230.875 221.083 236.447 221.083"/><polygon class="cls-5" points="236.441 271.24 236.441 276.811 236.425 276.811 236.425 271.24 236.425 265.664 236.425 260.093 236.425 254.515 236.425 248.945 236.425 243.373 236.425 237.797 236.425 232.224 236.414 232.224 236.414 226.654 236.43 226.654 236.43 232.224 236.441 232.224 236.441 237.797 236.441 243.373 236.441 248.945 236.441 254.515 236.441 260.093 236.441 265.664 236.441 271.24"/><polygon class="cls-5" points="236.425 271.24 236.425 276.811 230.881 276.811 230.854 276.811 230.854 271.24 236.425 271.24"/><rect class="cls-5" x="230.85377" y="265.66382" width="5.5713" height="5.5762"/><rect class="cls-5" x="230.85377" y="260.09302" width="5.5713" height="5.5708"/><rect class="cls-5" x="230.85377" y="254.51542" width="5.5713" height="5.5776"/><rect class="cls-5" x="230.85377" y="248.94462" width="5.5713" height="5.5708"/><rect class="cls-5" x="230.85377" y="243.37282" width="5.5713" height="5.5718"/><rect class="cls-5" x="230.85377" y="237.79662" width="5.5713" height="5.5762"/><polygon class="cls-5" points="236.425 232.224 236.425 237.797 230.854 237.797 230.854 232.224 236.414 232.224 236.425 232.224"/><polygon class="cls-5" points="236.414 226.654 236.414 232.224 230.854 232.224 230.843 232.224 230.843 226.654 230.875 226.654 236.414 226.654"/><rect class="cls-5" x="225.30937" y="304.67942" width="5.5713" height="5.5762"/><rect class="cls-5" x="225.30937" y="299.10762" width="5.5713" height="5.5718"/><rect class="cls-5" x="225.30937" y="293.53102" width="5.5713" height="5.5766"/><rect class="cls-5" x="225.30937" y="287.95922" width="5.5713" height="5.5718"/><rect class="cls-5" x="225.30937" y="282.38842" width="5.5713" height="5.5708"/><polygon class="cls-5" points="230.881 276.811 230.881 282.388 225.309 282.388 225.309 276.811 230.854 276.811 230.881 276.811"/><polygon class="cls-5" points="230.875 221.083 230.875 226.654 230.843 226.654 225.304 226.654 225.304 221.083 230.875 221.083"/><polygon class="cls-5" points="230.854 271.24 230.854 276.811 225.309 276.811 225.277 276.811 225.277 271.24 230.854 271.24"/><rect class="cls-5" x="225.27667" y="265.66382" width="5.5771" height="5.5762"/><rect class="cls-5" x="225.27667" y="260.09302" width="5.5771" height="5.5708"/><rect class="cls-5" x="225.27667" y="254.51542" width="5.5771" height="5.5776"/><rect class="cls-5" x="225.27667" y="248.94462" width="5.5771" height="5.5708"/><rect class="cls-5" x="225.27667" y="243.37282" width="5.5771" height="5.5718"/><rect class="cls-5" x="225.27667" y="237.79662" width="5.5771" height="5.5762"/><polygon class="cls-5" points="230.854 232.224 230.854 237.797 225.277 237.797 225.277 232.224 230.843 232.224 230.854 232.224"/><polygon class="cls-5" points="230.843 226.654 230.843 232.224 225.277 232.224 225.272 232.224 225.272 226.654 225.304 226.654 230.843 226.654"/><rect class="cls-5" x="219.73267" y="299.10762" width="5.5767" height="5.5718"/><rect class="cls-5" x="219.73267" y="293.53102" width="5.5767" height="5.5766"/><rect class="cls-5" x="219.73267" y="287.95922" width="5.5767" height="5.5718"/><rect class="cls-5" x="219.73267" y="282.38842" width="5.5767" height="5.5708"/><polygon class="cls-5" points="225.309 276.811 225.309 282.388 219.733 282.388 219.733 276.811 225.277 276.811 225.309 276.811"/><polygon class="cls-5" points="225.277 271.24 225.277 276.811 219.733 276.811 219.706 276.811 219.706 271.24 225.277 271.24"/><rect class="cls-5" x="219.70587" y="265.66382" width="5.5708" height="5.5762"/><rect class="cls-5" x="219.70587" y="260.09302" width="5.5708" height="5.5708"/><rect class="cls-5" x="219.70587" y="254.51542" width="5.5708" height="5.5776"/><rect class="cls-5" x="219.70587" y="237.79662" width="5.5708" height="5.5762"/><polygon class="cls-5" points="225.277 232.224 225.277 237.797 219.706 237.797 219.706 232.224 225.272 232.224 225.277 232.224"/><polygon class="cls-5" points="225.272 226.654 225.272 232.224 219.706 232.224 219.695 232.224 219.695 226.654 219.727 226.654 225.272 226.654"/><rect class="cls-5" x="214.16087" y="299.10762" width="5.5718" height="5.5718"/><rect class="cls-5" x="214.16087" y="293.53102" width="5.5718" height="5.5766"/><rect class="cls-5" x="214.16087" y="287.95922" width="5.5718" height="5.5718"/><rect class="cls-5" x="214.16087" y="282.38842" width="5.5718" height="5.5708"/><polygon class="cls-5" points="219.733 276.811 219.733 282.388 214.161 282.388 214.161 276.811 219.706 276.811 219.733 276.811"/><polygon class="cls-5" points="219.706 271.24 219.706 276.811 214.161 276.811 214.129 276.811 214.129 271.24 219.706 271.24"/><rect class="cls-5" x="214.12867" y="265.66382" width="5.5772" height="5.5762"/><rect class="cls-5" x="214.12867" y="260.09302" width="5.5772" height="5.5708"/><rect class="cls-5" x="214.12867" y="254.51542" width="5.5772" height="5.5776"/><polygon class="cls-5" points="219.706 232.224 219.706 237.797 214.129 237.797 214.129 232.224 219.695 232.224 219.706 232.224"/><rect class="cls-5" x="208.58427" y="293.53102" width="5.5766" height="5.5766"/><rect class="cls-5" x="208.58427" y="287.95922" width="5.5766" height="5.5718"/><rect class="cls-5" x="208.58427" y="282.38842" width="5.5766" height="5.5708"/><polygon class="cls-5" points="214.161 276.811 214.161 282.388 208.584 282.388 208.584 276.811 214.129 276.811 214.161 276.811"/><polygon class="cls-5" points="214.129 271.24 214.129 276.811 208.584 276.811 208.557 276.811 208.557 271.24 214.129 271.24"/><rect class="cls-5" x="208.55737" y="265.66382" width="5.5713" height="5.5762"/><rect class="cls-5" x="208.55737" y="260.09302" width="5.5713" height="5.5708"/><rect class="cls-5" x="203.01347" y="282.38842" width="5.5708" height="5.5708"/><polygon class="cls-5" points="208.584 276.811 208.584 282.388 203.013 282.388 203.013 276.811 208.557 276.811 208.584 276.811"/><polygon class="cls-5" points="208.557 271.24 208.557 276.811 203.013 276.811 202.987 276.811 202.987 271.24 208.557 271.24"/></g><rect class="cls-9" x="169.05587" y="222.06904" width="320.45156" height="145.06116"/><text class="cls-10" transform="translate(86.09127 372.96122)">Learn Programming<tspan x="46.22119" y="59.41797">while</tspan><tspan class="cls-11" x="182.03906" y="59.41797" xml:space="preserve"> Gaming!</tspan></text><circle class="cls-5" cx="89.63994" cy="598.97549" r="42.81739"/><circle class="cls-1" cx="74.9538" cy="599.96022" r="2.82039"/><circle class="cls-1" cx="107.56748" cy="598.97549" r="11.75325"/><text class="cls-12" transform="translate(59.959 604.57834)">CODYLE</text><g class="cls-13"><text class="cls-14" transform="translate(276.14283 471.88445)">#Codyle_Blogs</text></g></g></g></svg>