<svg xmlns="http://www.w3.org/2000/svg" viewBox="0 0 208.55683 208.55683"><defs><style>.cls-1{fill:#33b1c4;}.cls-2{fill:#eefdff;}</style></defs><g id="Layer_2" data-name="Layer 2"><g id="Layer_1-2" data-name="Layer 1"><rect class="cls-1" width="208.55683" height="208.55683" rx="23.08692"/><path class="cls-2" d="M108.04047,56.21306a22.77656,22.77656,0,0,1,5.15306-6.54449,24.48715,24.48715,0,0,1,15.5478-5.7069,27.01975,27.01975,0,0,1,14.95687,4.07621v79.4905s-24.87349-3.30486-35.65773,14.437Z"/><path class="cls-2" d="M146.4812,50.60313l15.3067,10.08851v74.62018a60.63,60.63,0,0,0-15.3067-6.43577Z"/><path class="cls-2" d="M164.04912,61.90922l14.61094,8.52305v73.57654s-13.39336-6.26183-14.61094-6.95759Z"/><path class="cls-2" d="M103.85259,56.21306a22.77656,22.77656,0,0,0-5.15306-6.54449,24.48716,24.48716,0,0,0-15.5478-5.7069,27.01975,27.01975,0,0,0-14.95687,4.07621v79.4905s24.87349-3.30486,35.65773,14.437Z"/><path class="cls-2" d="M65.41186,50.60313,50.10516,60.69164v74.62018a60.62974,60.62974,0,0,1,15.3067-6.43577Z"/><path class="cls-2" d="M47.84394,61.90922,33.233,70.43227v73.57654s13.39336-6.26183,14.61094-6.95759Z"/><path class="cls-2" d="M108.04047,147.59607s5.46893-12.91589,22.92283-13.96313a61.66686,61.66686,0,0,1,27.11176,5.70162l16.75579,9.77418s2.90893,2.21084,5.46884,2.32719v1.86176a19.50839,19.50839,0,0,1-7.56334,0c-2.1828-.44235-3.55207-1.13161-6.98155-2.73444-2.03407-.95067-5.14149-2.38565-9.076-4.13078,0,0-12.45047-7.09791-24.78455-6.98156C131.8942,139.45091,118.16373,138.40368,108.04047,147.59607Z"/><path class="cls-2" d="M103.85259,147.59607s-5.46893-12.91589-22.92283-13.96313A61.66686,61.66686,0,0,0,53.818,139.33456l-16.75579,9.77418s-2.90893,2.21084-5.46885,2.32719v1.86176a19.50844,19.50844,0,0,0,7.56335,0c2.1828-.44235,3.55207-1.13161,6.98155-2.73444,2.03407-.95067,5.14149-2.38565,9.076-4.13078,0,0,12.45047-7.09791,24.78455-6.98156C79.99886,139.45091,93.72933,138.40368,103.85259,147.59607Z"/></g></g></svg>